<?xml version="1.0" encoding="utf-8"?>
<!-- Crosshair icon by Arthur Shlain from Usefulicons.com -->
<svg xmlns="http://www.w3.org/2000/svg" xmlns:xlink="http://www.w3.org/1999/xlink" xml:space="preserve" version="1.1" x="0px" y="0px" viewBox="0 0 100 100" width="400px" height="400px"><path d="M95,47.5L87.4,47.5C86.2,28.8,71.2,13.8,52.5,12.6L52.5,5L47.5,5L47.5,12.6C28.8,13.8,13.8,28.8,12.6,47.5L5,47.5L5,52.5L12.6,52.5C13.8,71.2,28.8,86.2,47.5,87.4L47.5,95L52.5,95L52.5,87.4C71.2,86.2,86.2,71.2,87.4,52.5L95,52.5L95,47.5ZM52.5,79.9L52.5,62.5L47.5,62.5L47.5,79.9C32.9,78.7,21.3,67.1,20.1,52.5L37.5,52.5L37.5,47.5L20.1,47.5C21.3,32.9,32.9,21.3,47.5,20.1L47.5,37.5L52.5,37.5L52.5,20.1C67.1,21.3,78.7,32.9,79.9,47.5L62.5,47.5L62.5,52.5L79.9,52.5C78.7,67.1,67.1,78.7,52.5,79.9Z" stroke="none"></path><path d="M47.5,47.5L52.5,47.5L52.5,52.5L47.5,52.5L47.5,47.5Z" stroke="none"></path></svg>