<?xml version="1.0" encoding="utf-8"?>
<!-- Shield icon by Arthur Shlain from Usefulicons.com -->
<svg xmlns="http://www.w3.org/2000/svg" xmlns:xlink="http://www.w3.org/1999/xlink" xml:space="preserve" version="1.1" x="0px" y="0px" viewBox="0 0 100 100" width="400px" height="400px"><path d="M50,95.355C56.667,91.808,90,77.622,90,20C70.049,20,50,5,50,5S29.951,20,10,20C10,77.622,43.333,91.808,50,95.355ZM50,14.045C56.374,18.071,68.749,24.872,82.326,26.907C81.372,45.382,76.509,60.449,67.835,71.768C61.455,80.093,54.483,84.476,50,86.9C45.517,84.476,38.545,80.093,32.166,71.769C23.491,60.45,18.629,45.382,17.675,26.907C31.251,24.872,43.625,18.071,50,14.045Z" stroke="none"></path><path d="M48.644,80.294L50,81.171L51.356,80.295C65.834,70.942,74.396,55.103,76.807,33.216L77.045,31.051L74.933,30.518C65.264,28.078,56.715,23.812,51.246,20.663L50,19.944L48.753,20.662C43.284,23.811,34.735,28.077,25.066,30.517L22.954,31.05L23.192,33.215C25.604,55.102,34.166,70.941,48.644,80.294ZM50,25.703C55.321,28.675,62.942,32.36,71.58,34.796C69.134,53.315,61.883,66.886,50,75.183C38.117,66.886,30.866,53.315,28.42,34.796C37.058,32.36,44.679,28.675,50,25.703Z" stroke="none"></path></svg>